<svg width="33" height="22" viewBox="0 0 33 22" fill="none" xmlns="http://www.w3.org/2000/svg">
    <path
        d="M21.3566 14.7067C20.5755 16.889 19.1249 18.7688 17.212 20.0777C15.2991 21.3867 13.0216 22.0579 10.7046 21.9957C8.38755 21.9334 6.14939 21.1408 4.30954 19.731C2.46969 18.3212 1.1222 16.3663 0.459363 14.1452C-0.203469 11.9241 -0.147758 9.55043 0.618546 7.36289C1.38485 5.17535 2.82258 3.28577 4.72654 1.96385C6.63051 0.641926 8.90339 -0.0447849 11.2208 0.0017266C13.5382 0.0482381 15.7817 0.825595 17.6311 2.22285L15.8853 4.53358C14.5228 3.50419 12.87 2.93149 11.1627 2.89723C9.4554 2.86296 7.78092 3.36887 6.37823 4.34276C4.97554 5.31665 3.91633 6.70874 3.35178 8.32035C2.78723 9.93196 2.74618 11.6807 3.2345 13.317C3.72283 14.9534 4.71556 16.3936 6.07101 17.4322C7.42647 18.4709 9.07537 19.0548 10.7824 19.1006C12.4894 19.1465 14.1673 18.652 15.5766 17.6876C16.9858 16.7233 18.0545 15.3385 18.63 13.7307L21.3566 14.7067Z"
        fill="#DA291C" />
    <path
        d="M15.9541 10.3293C15.732 11.084 14.9351 11.5242 14.2154 11.2065C13.2149 10.765 12.2834 10.1756 11.453 9.45596C10.6225 8.73631 9.90669 7.8981 9.32734 6.97061C8.91058 6.30342 9.2329 5.45195 9.94832 5.12483C10.6637 4.79772 11.4994 5.12208 11.9459 5.76973C12.3358 6.33524 12.7966 6.85078 13.3186 7.30311C13.8406 7.75544 14.4164 8.13831 15.0316 8.4438C15.7362 8.79366 16.1761 9.57466 15.9541 10.3293Z"
        fill="#DA291C" />
    <path
        d="M11.6434 7.29326C12.4245 5.11098 13.8751 3.23122 15.788 1.92227C17.7009 0.613316 19.9784 -0.0579338 22.2954 0.00432777C24.6124 0.0665874 26.8506 0.859175 28.6905 2.26897C30.5303 3.67876 31.8778 5.63371 32.5406 7.85479C33.2035 10.0759 33.1478 12.4496 32.3815 14.6371C31.6151 16.8247 30.1774 18.7142 28.2735 20.0361C26.3695 21.3581 24.0966 22.0448 21.7792 21.9983C19.4618 21.9518 17.2183 21.1744 15.3689 19.7771L17.1147 17.4664C18.4772 18.4958 20.13 19.0685 21.8373 19.1028C23.5446 19.137 25.2191 18.6311 26.6218 17.6572C28.0245 16.6833 29.0837 15.2913 29.6482 13.6796C30.2128 12.068 30.2538 10.3193 29.7655 8.68297C29.2772 7.04665 28.2844 5.6064 26.929 4.56777C25.5735 3.52915 23.9246 2.94523 22.2176 2.89936C20.5106 2.8535 18.8327 3.34802 17.4234 4.31235C16.0142 5.27669 14.9455 6.66155 14.37 8.26928L11.6434 7.29326Z"
        fill="#DA291C" />
    <path
        d="M17.0459 11.6707C17.268 10.916 18.0649 10.4758 18.7846 10.7935C19.7851 11.235 20.7166 11.8244 21.547 12.544C22.3775 13.2637 23.0933 14.1019 23.6727 15.0294C24.0894 15.6966 23.7671 16.5481 23.0517 16.8752C22.3363 17.2023 21.5006 16.8779 21.0541 16.2303C20.6642 15.6648 20.2034 15.1492 19.6814 14.6969C19.1594 14.2446 18.5836 13.8617 17.9684 13.5562C17.2638 13.2063 16.8239 12.4253 17.0459 11.6707Z"
        fill="#DA291C" />
</svg>